# xmcd
#
# Track frame offsets: 
#        150
#        13922
#        27967
#        41612
#        54757
#        68407
#        81522
#        94745
#        107352
#        120417
#        136335
#        150622
#        163212
#        175640
#        188972
#        201480
#        216202
#        232005
#        247292
#        264510
#        278902
#        292860
#        308240
#        322820
#        334205
#
# Disc length: 4615 seconds
#
# Revision: 2
# Processed by: cddbd v1.5.2PL0 Copyright (c) Steve Scherf et al.
# Submitted via: ExactAudioCopyFreeDBPlugin 1.0
#
DISCID=64120519
DTITLE=Various Artist - Great Harp Players (1927-1936)
DYEAR=1900
DGENRE=
TTITLE0=William Francis and Richard Sowell - John Henry Blues
TTITLE1=William Francis and Richard Sowell - Roubin Blues
TTITLE2=Ollis Martin - Police and High Sheriff Come Ridin' Down
TTITLE3=El Watson - Pot Licker Blues
TTITLE4=El Watson - Narrow Gauge Blues
TTITLE5=El Watson - El Watson's Fox Chase
TTITLE6=El Watson - Bay Rum Blues
TTITLE7=El Watson - Sweet Bunch of Daisies
TTITLE8=El Watson - One Sock Blues
TTITLE9=Palmer McAbee - Lost Boy Blues
TTITLE10=Palmer McAbee - McAbee's Railroad Piece
TTITLE11=George "Bullet" Williams - Touch Me Light Mama
TTITLE12=George "Bullet" Williams - Frisco Leaving Birmingham
TTITLE13=George "Bullet" Williams - The Escaped Convict
TTITLE14=George "Bullet" Williams - Middlin' Blues
TTITLE15=Blues Birdhead - Don't Mistreat Your Good Boy Friend
TTITLE16=Blues Birdhead - Get Up Off That Jazzophone
TTITLE17=Blues Birdhead - Mean Low Blues
TTITLE18=Blues Birdhead - Harmonica Blues
TTITLE19=Ellis Williams - Buttermilk Blues
TTITLE20=Ellis Williams - Smokey Blues
TTITLE21=Alfred Lewis - Mississippi Swamp Blues
TTITLE22=Alfred Lewis - Friday Moan Blues
TTITLE23=Smith and Harper - Poor Girl
TTITLE24=Smith and Harper - Insurance Policy Blues
EXTD=
EXTT0=
EXTT1=
EXTT2=
EXTT3=
EXTT4=
EXTT5=
EXTT6=
EXTT7=
EXTT8=
EXTT9=
EXTT10=
EXTT11=
EXTT12=
EXTT13=
EXTT14=
EXTT15=
EXTT16=
EXTT17=
EXTT18=
EXTT19=
EXTT20=
EXTT21=
EXTT22=
EXTT23=
EXTT24=
PLAYORDER=
